{
  "source": "C:\\Users\\Peter\\Desktop\\stuff\\MIUN\\quantitative_research\\video_compression\\videos\\BVI-HD\\BVI-HD_CDVL_videos\\ORIG\\RockWater_1920x1080_30fps.mp4",
  "output": "C:\\Users\\Peter\\Desktop\\stuff\\MIUN\\quantitative_research\\video_compression\\compressed_videos\\BVI-HD\\h264\\8\\RockWater_1920x1080_30fps_h264.mp4",
  "codec": "h264",
  "ok": "Input #0, mov,mp4,m4a,3gp,3g2,mj2, from 'C:\\Users\\Peter\\Desktop\\stuff\\MIUN\\quantitative_research\\video_compression\\videos\\BVI-HD\\BVI-HD_CDVL_videos\\ORIG\\RockWater_1920x1080_30fps.mp4':\n  Metadata:\n    major_brand     : isom\n    minor_version   : 512\n    compatible_brands: isomiso2avc1mp41\n    encoder         : Lavf54.28.101\n  Duration: 00:00:05.00, start: 0.000000, bitrate: 245943 kb/s\n  Stream #0:0[0x1](und): Video: h264 (High 4:4:4 Predictive) (avc1 / 0x31637661), yuv420p(progressive), 1920x1080, 245940 kb/s, 30 fps, 30 tbr, 30 tbn (default)\n    Metadata:\n      handler_name    : VideoHandler\n      vendor_id       : [0][0][0][0]\n[out#0/mp4 @ 0000023c8ed59cc0] Codec AVOption b:a (set bitrate (in bits/s)) has not been used for any stream. The most likely reason is either wrong type (e.g. a video option with no video streams) or that it is a private option of some decoder which was not actually used for any stream.\nStream mapping:\n  Stream #0:0 -> #0:0 (h264 (native) -> h264 (libx264))\nPress [q] to stop, [?] for help\n[libx264 @ 0000023c8f684740] using cpu capabilities: MMX2 SSE2Fast SSSE3 SSE4.2 AVX FMA3 BMI2 AVX2\n[libx264 @ 0000023c8f684740] profile High, level 5.0, 4:2:0, 8-bit\n[libx264 @ 0000023c8f684740] 264 - core 165 r3222 b35605a - H.264/MPEG-4 AVC codec - Copyleft 2003-2025 - http://www.videolan.org/x264.html - options: cabac=1 ref=5 deblock=1:0:0 analyse=0x3:0x113 me=hex subme=8 psy=1 psy_rd=1.00:0.00 mixed_ref=1 me_range=16 chroma_me=1 trellis=2 8x8dct=1 cqm=0 deadzone=21,11 fast_pskip=1 chroma_qp_offset=-2 threads=18 lookahead_threads=3 sliced_threads=0 nr=0 decimate=1 interlaced=0 bluray_compat=0 constrained_intra=0 bframes=3 b_pyramid=2 b_adapt=1 b_bias=0 direct=3 weightb=1 open_gop=0 weightp=2 keyint=250 keyint_min=25 scenecut=40 intra_refresh=0 rc_lookahead=50 rc=cbr mbtree=1 bitrate=8000 ratetol=1.0 qcomp=0.60 qpmin=0 qpmax=69 qpstep=4 vbv_maxrate=8000 vbv_bufsize=8000 nal_hrd=none filler=0 ip_ratio=1.40 aq=1:1.00\nOutput #0, mp4, to 'C:\\Users\\Peter\\Desktop\\stuff\\MIUN\\quantitative_research\\video_compression\\compressed_videos\\BVI-HD\\h264\\8\\RockWater_1920x1080_30fps_h264.mp4':\n  Metadata:\n    major_brand     : isom\n    minor_version   : 512\n    compatible_brands: isomiso2avc1mp41\n    encoder         : Lavf62.3.100\n  Stream #0:0(und): Video: h264 (avc1 / 0x31637661), yuv420p(tv, progressive), 1920x1080, q=2-31, 8000 kb/s, 30 fps, 15360 tbn (default)\n    Metadata:\n      encoder         : Lavc62.11.100 libx264\n      handler_name    : VideoHandler\n      vendor_id       : [0][0][0][0]\n    Side data:\n      cpb: bitrate max/min/avg: 8000000/0/8000000 buffer size: 8000000 vbv_delay: N/A\nframe=    0 fps=0.0 q=0.0 size=       0KiB time=N/A bitrate=N/A speed=N/A elapsed=0:00:00.53    \nframe=    0 fps=0.0 q=0.0 size=       0KiB time=N/A bitrate=N/A speed=N/A elapsed=0:00:01.16    \nframe=    0 fps=0.0 q=0.0 size=       0KiB time=N/A bitrate=N/A speed=N/A elapsed=0:00:01.83    \nframe=    4 fps=1.6 q=33.0 size=       0KiB time=00:00:00.06 bitrate=   5.8kbits/s speed=0.0266x elapsed=0:00:02.50    \nframe=   22 fps=7.1 q=34.0 size=     512KiB time=00:00:00.46 bitrate=8988.6kbits/s speed=0.151x elapsed=0:00:03.08    \nframe=   31 fps=8.3 q=33.0 size=    1024KiB time=00:00:00.96 bitrate=8678.3kbits/s speed=0.258x elapsed=0:00:03.74    \nframe=   41 fps=9.4 q=33.0 size=    1280KiB time=00:00:01.30 bitrate=8066.3kbits/s speed=0.297x elapsed=0:00:04.37    \nframe=   41 fps=8.2 q=33.0 size=    1280KiB time=00:00:01.30 bitrate=8066.3kbits/s speed=0.261x elapsed=0:00:04.97    \nframe=   59 fps= 11 q=33.0 size=    1792KiB time=00:00:01.83 bitrate=8007.5kbits/s speed=0.327x elapsed=0:00:05.60    \nframe=   77 fps= 12 q=33.0 size=    2304KiB time=00:00:02.50 bitrate=7549.9kbits/s speed=0.405x elapsed=0:00:06.17    \nframe=   87 fps= 13 q=33.0 size=    2560KiB time=00:00:02.80 bitrate=7490.0kbits/s speed=0.418x elapsed=0:00:06.70    \nframe=   97 fps= 13 q=33.0 size=    2816KiB time=00:00:03.16 bitrate=7285.0kbits/s speed=0.437x elapsed=0:00:07.23    \nframe=  117 fps= 15 q=32.0 size=    3584KiB time=00:00:03.83 bitrate=7659.3kbits/s speed=0.494x elapsed=0:00:07.75    \nframe=  133 fps= 16 q=30.0 size=    4096KiB time=00:00:04.36 bitrate=7684.3kbits/s speed=0.523x elapsed=0:00:08.34    \nframe=  150 fps= 17 q=-1.0 size=    4608KiB time=00:00:04.90 bitrate=7703.9kbits/s speed=0.549x elapsed=0:00:08.93    \n[mp4 @ 0000023c8ed61300] Starting second pass: moving the moov atom to the beginning of the file\n[out#0/mp4 @ 0000023c8ed59cc0] video:4700KiB audio:0KiB subtitle:0KiB other streams:0KiB global headers:0KiB muxing overhead: 0.056246%\nframe=  150 fps= 17 q=-1.0 Lsize=    4703KiB time=00:00:04.93 bitrate=7809.0kbits/s speed=0.548x elapsed=0:00:08.99    \n[libx264 @ 0000023c8f684740] frame I:1     Avg QP:29.13  size: 86506\n[libx264 @ 0000023c8f684740] frame P:40    Avg QP:30.98  size: 49818\n[libx264 @ 0000023c8f684740] frame B:109   Avg QP:33.24  size: 25072\n[libx264 @ 0000023c8f684740] consecutive B-frames:  1.3%  4.0%  4.0% 90.7%\n[libx264 @ 0000023c8f684740] mb I  I16..4: 16.5% 75.8%  7.7%\n[libx264 @ 0000023c8f684740] mb P  I16..4: 14.0% 21.4%  1.1%  P16..4: 43.6%  9.5%  4.6%  0.0%  0.0%    skip: 5.8%\n[libx264 @ 0000023c8f684740] mb B  I16..4:  3.1%  6.5%  0.5%  B16..8: 46.5% 10.9%  1.1%  direct: 3.3%  skip:28.1%  L0:50.5% L1:46.8% BI: 2.7%\n[libx264 @ 0000023c8f684740] 8x8 transform intra:61.4% inter:78.7%\n[libx264 @ 0000023c8f684740] direct mvs  spatial:91.7% temporal:8.3%\n[libx264 @ 0000023c8f684740] coded y,uvDC,uvAC intra: 40.1% 13.8% 0.0% inter: 20.8% 5.6% 0.0%\n[libx264 @ 0000023c8f684740] i16 v,h,dc,p:  4% 44%  6% 46%\n[libx264 @ 0000023c8f684740] i8 v,h,dc,ddl,ddr,vr,hd,vl,hu:  5% 21% 10%  6%  9%  5% 21%  6% 17%\n[libx264 @ 0000023c8f684740] i4 v,h,dc,ddl,ddr,vr,hd,vl,hu:  7% 17% 18%  6%  9%  6% 14%  7% 16%\n[libx264 @ 0000023c8f684740] i8c dc,h,v,p: 81% 17%  2%  0%\n[libx264 @ 0000023c8f684740] Weighted P-Frames: Y:10.0% UV:0.0%\n[libx264 @ 0000023c8f684740] ref P L0: 48.0% 10.6% 18.8% 12.2%  9.9%  0.6%\n[libx264 @ 0000023c8f684740] ref B L0: 66.5% 19.1% 10.5%  3.9%\n[libx264 @ 0000023c8f684740] ref B L1: 92.5%  7.5%\n[libx264 @ 0000023c8f684740] kb/s:7699.29\n",
  "seconds": 9.641284704208374,
  "probe_out": {}
}